<?xml version="1.0" standalone="no"?>
<!DOCTYPE svg PUBLIC "-//W3C//DTD SVG 20010904//EN"
 "http://www.w3.org/TR/2001/REC-SVG-20010904/DTD/svg10.dtd">
<svg version="1.0" xmlns="http://www.w3.org/2000/svg"
 width="512.000000pt" height="512.000000pt" viewBox="0 0 512.000000 512.000000"
 preserveAspectRatio="xMidYMid meet">
<metadata>
Created by potrace 1.15, written by Peter Selinger 2001-2017
</metadata>
<g transform="translate(0.000000,512.000000) scale(0.100000,-0.100000)"
fill="#000000" stroke="none">
<path d="M203 4958 c-174 -172 -196 -198 -191 -231 3 -19 32 5 192 163 103
102 192 193 197 203 8 14 5 17 -17 17 -21 0 -60 -33 -181 -152z"/>
<path d="M303 4858 c-140 -139 -264 -265 -275 -281 -10 -15 -18 -37 -16 -50 3
-18 49 23 292 263 158 157 292 293 297 303 8 14 5 17 -17 17 -22 0 -75 -47
-281 -252z"/>
<path d="M402 4758 c-194 -194 -362 -365 -373 -381 -11 -15 -19 -37 -17 -50 4
-18 67 40 392 363 213 212 392 393 397 403 8 14 5 17 -18 17 -22 0 -89 -62
-381 -352z"/>
<path d="M502 4658 c-249 -249 -462 -465 -473 -481 -11 -15 -19 -37 -17 -50 4
-18 84 57 492 463 268 267 492 493 497 503 8 14 5 17 -18 17 -22 0 -104 -76
-481 -452z"/>
<path d="M602 4558 c-304 -304 -562 -565 -573 -581 -11 -15 -19 -37 -17 -50 4
-18 101 75 592 563 323 322 592 593 597 603 8 14 5 17 -18 17 -23 0 -118 -91
-581 -552z"/>
<path d="M702 4458 c-359 -359 -662 -665 -673 -681 -11 -15 -19 -37 -17 -50 4
-18 118 92 692 663 378 377 692 693 697 703 8 14 5 17 -18 17 -23 0 -133 -106
-681 -652z"/>
<path d="M802 4358 c-414 -414 -762 -765 -773 -781 -11 -15 -19 -37 -17 -50 4
-18 136 109 792 763 433 432 792 793 797 803 8 14 5 17 -18 17 -23 0 -148
-120 -781 -752z"/>
<path d="M902 4258 c-469 -469 -862 -865 -873 -881 -11 -15 -19 -37 -17 -50 4
-18 130 104 759 731 l755 753 -4 -68 -4 -68 -754 -755 c-629 -630 -754 -760
-754 -783 0 -15 3 -27 7 -27 4 0 348 340 764 756 630 629 758 753 763 737 4
-11 16 -29 27 -39 20 -18 9 -28 -771 -809 -660 -660 -790 -795 -790 -818 0
-15 3 -27 7 -27 4 0 368 360 808 800 l800 800 47 -18 47 -18 -717 -717 -717
-717 -63 0 -62 0 0 -61 0 -62 -75 -78 c-53 -55 -75 -86 -75 -104 0 -14 3 -25
6 -25 3 0 37 30 75 67 l69 66 0 -63 0 -63 -75 -78 c-53 -55 -75 -86 -75 -104
0 -14 3 -25 6 -25 3 0 37 30 75 67 l69 66 0 -63 0 -63 -75 -78 c-53 -56 -75
-86 -75 -104 0 -34 18 -24 90 49 30 31 57 56 61 56 4 0 9 -24 11 -52 l4 -53
-83 -87 c-59 -62 -83 -95 -83 -113 0 -14 3 -25 6 -25 4 0 44 36 89 80 l82 81
11 -53 10 -53 -99 -102 c-73 -75 -99 -108 -99 -127 0 -14 3 -26 6 -26 4 0 51
44 105 97 54 53 100 95 102 92 2 -2 9 -24 15 -49 l11 -44 -120 -122 c-90 -93
-119 -128 -119 -148 0 -14 3 -26 7 -26 3 0 61 54 128 121 l123 121 16 -48 16
-48 -145 -147 c-113 -114 -145 -153 -145 -173 0 -39 15 -28 170 128 74 75 137
136 141 136 3 0 13 -19 22 -42 l17 -42 -175 -177 c-139 -140 -175 -182 -175
-203 0 -22 3 -25 18 -17 9 5 93 86 187 180 l170 171 22 -43 21 -42 -209 -211
c-168 -169 -209 -216 -209 -238 0 -22 3 -25 18 -17 9 5 109 102 221 215 l205
205 23 -34 c13 -19 23 -37 23 -42 0 -4 -110 -118 -245 -253 -199 -200 -245
-252 -245 -274 0 -22 3 -25 18 -17 9 5 127 120 261 255 l244 244 28 -36 27
-37 -289 -291 c-236 -237 -289 -295 -289 -318 0 -22 3 -25 18 -17 9 5 145 138
302 295 273 274 285 285 303 268 51 -46 63 -31 -292 -386 -270 -271 -331 -337
-331 -359 0 -15 3 -27 7 -27 4 0 162 154 351 343 l343 342 29 -35 29 -35 -380
-381 c-311 -312 -379 -385 -379 -407 0 -15 3 -27 7 -27 4 0 183 175 398 390
l390 389 35 -29 35 -29 -433 -433 c-359 -360 -432 -439 -432 -461 0 -23 3 -26
18 -18 9 5 210 204 447 440 236 237 433 431 437 431 3 0 21 -12 38 -27 l32
-26 -461 -461 c-254 -254 -461 -465 -461 -469 0 -4 12 -7 27 -7 22 0 106 79
478 450 248 247 455 450 460 450 6 0 24 -11 40 -24 l30 -25 -417 -418 c-230
-230 -418 -422 -418 -426 0 -4 12 -7 27 -7 22 0 100 73 439 411 l412 411 41
-23 42 -23 -381 -381 c-209 -209 -380 -384 -380 -388 0 -4 12 -7 27 -7 22 0
95 67 402 374 l376 375 42 -22 43 -22 -336 -335 c-184 -184 -340 -343 -345
-352 -8 -15 -5 -18 18 -18 22 0 87 60 368 340 l341 340 42 -16 c23 -10 42 -20
42 -23 0 -3 -135 -141 -301 -306 -165 -165 -305 -308 -310 -317 -8 -15 -5 -18
17 -18 23 0 82 55 331 302 l303 302 0 -64 0 -65 -221 -220 c-121 -121 -225
-228 -230 -237 -8 -15 -5 -18 17 -18 22 0 67 40 230 202 192 190 204 200 204
171 0 -18 4 -43 9 -56 9 -22 -2 -36 -120 -153 -150 -149 -162 -164 -123 -164
20 0 55 29 153 125 l127 125 32 -33 32 -33 -76 -74 c-94 -93 -104 -110 -69
-110 18 0 50 23 113 83 l87 82 58 -5 58 -5 -61 -60 c-79 -78 -89 -95 -55 -95
18 0 49 23 109 80 l83 80 63 0 63 0 -71 -74 c-40 -41 -72 -77 -72 -80 0 -3 11
-6 25 -6 18 0 50 23 109 80 l83 80 63 0 63 0 -71 -74 c-40 -41 -72 -77 -72
-80 0 -3 11 -6 25 -6 18 0 50 23 109 80 l83 80 63 0 63 0 -71 -74 c-40 -41
-72 -77 -72 -80 0 -3 11 -6 25 -6 18 0 50 23 109 80 l83 80 63 0 63 0 -71 -74
c-40 -41 -72 -77 -72 -80 0 -3 11 -6 25 -6 18 0 50 23 109 80 l83 80 63 0 63
0 -71 -74 c-40 -41 -72 -77 -72 -80 0 -3 11 -6 25 -6 18 0 50 23 109 80 l83
80 63 0 63 0 -71 -74 c-40 -41 -72 -77 -72 -80 0 -3 11 -6 25 -6 18 0 50 23
109 80 l83 80 63 0 63 0 -71 -74 c-40 -41 -72 -77 -72 -80 0 -3 11 -6 25 -6
18 0 50 23 109 80 l83 80 63 0 63 0 -71 -74 c-40 -41 -72 -77 -72 -80 0 -3 12
-6 27 -6 23 0 172 144 911 882 486 486 892 895 903 911 11 15 19 37 17 50 -4
18 -131 -104 -761 -733 l-757 -755 0 66 0 65 148 144 c104 102 175 162 238
201 242 153 498 414 654 669 19 31 130 153 257 281 178 180 223 231 223 252 0
15 -3 27 -7 27 -4 0 -85 -77 -180 -172 l-173 -172 44 108 44 108 136 138 c105
106 136 144 136 164 0 14 -3 26 -7 26 -3 0 -58 -51 -121 -112 -63 -62 -112
-104 -109 -93 3 11 13 49 22 85 16 61 23 71 116 167 73 75 99 108 99 127 0 14
-3 26 -6 26 -4 0 -44 -37 -91 -82 l-84 -83 7 70 7 70 83 87 c60 63 84 94 84
113 0 14 -3 25 -6 25 -3 0 -39 -32 -80 -72 l-74 -71 0 63 0 63 80 83 c57 59
80 91 80 109 0 14 -3 25 -6 25 -3 0 -39 -32 -80 -72 l-74 -71 0 63 0 63 80 83
c57 59 80 91 80 109 0 14 -3 25 -6 25 -3 0 -39 -32 -80 -72 l-74 -71 0 63 0
63 80 83 c57 60 80 91 80 109 0 37 -16 25 -135 -94 l-100 -101 -64 0 -65 0
182 184 c145 146 182 189 182 210 0 22 -3 25 -17 17 -10 -5 -108 -100 -218
-210 l-200 -201 -65 0 -64 0 282 283 c230 232 282 288 282 311 0 22 -3 25 -17
17 -10 -5 -153 -145 -318 -310 l-300 -301 -65 0 -64 0 382 383 c316 317 382
388 382 410 0 23 -3 26 -17 18 -10 -5 -198 -190 -418 -410 l-400 -401 -65 0
-65 0 483 483 c398 399 482 488 482 510 0 15 -3 27 -6 27 -3 0 -39 -32 -80
-72 l-74 -71 0 63 0 63 80 83 c57 59 80 91 80 109 0 14 -3 25 -6 25 -3 0 -39
-32 -80 -72 l-74 -71 0 63 0 63 80 83 c57 60 80 91 80 109 0 34 -17 24 -95
-54 l-59 -61 -65 0 -65 0 142 144 c110 111 142 150 142 170 0 14 -3 26 -6 26
-3 0 -39 -32 -80 -72 l-74 -71 0 63 0 63 80 83 c57 59 80 91 80 109 0 14 -3
25 -6 25 -3 0 -39 -32 -80 -72 l-74 -71 0 63 0 63 80 83 c57 59 80 91 80 109
0 14 -3 25 -6 25 -3 0 -39 -32 -80 -72 -61 -58 -74 -67 -74 -50 0 19 -6 22
-42 22 l-41 0 66 69 c37 38 67 72 67 75 0 3 -11 6 -25 6 -18 0 -49 -22 -104
-75 l-78 -75 -63 0 -63 0 66 69 c37 38 67 72 67 75 0 3 -11 6 -25 6 -18 0 -49
-22 -104 -75 l-78 -75 -63 0 -63 0 66 69 c37 38 67 72 67 75 0 3 -11 6 -25 6
-18 0 -49 -22 -104 -75 l-78 -75 -63 0 -63 0 66 69 c37 38 67 72 67 75 0 3
-11 6 -25 6 -18 0 -49 -22 -104 -75 l-78 -75 -63 0 -63 0 66 69 c37 38 67 72
67 75 0 3 -11 6 -25 6 -18 0 -49 -22 -104 -75 l-78 -75 -63 0 -63 0 66 69 c37
38 67 72 67 75 0 3 -11 6 -25 6 -18 0 -49 -22 -104 -75 l-78 -75 -63 0 -63 0
66 69 c37 38 67 72 67 75 0 3 -11 6 -25 6 -18 0 -49 -22 -104 -75 l-78 -75
-63 0 -63 0 66 69 c37 38 67 72 67 75 0 3 -11 6 -25 6 -18 0 -49 -22 -104 -75
l-78 -75 -63 0 -63 0 66 69 c37 38 67 72 67 75 0 3 -11 6 -25 6 -18 0 -49 -22
-104 -75 l-78 -75 -63 0 -63 0 66 69 c37 38 67 72 67 75 0 3 -11 6 -25 6 -18
0 -49 -22 -104 -75 l-78 -75 -63 0 -63 0 66 69 c37 38 67 72 67 75 0 3 -11 6
-25 6 -18 0 -49 -22 -104 -75 l-78 -75 -63 0 -63 0 66 69 c37 38 67 72 67 75
0 3 -11 6 -25 6 -18 0 -49 -22 -104 -75 l-78 -75 -63 0 -63 0 66 69 c37 38 67
72 67 75 0 3 -11 6 -25 6 -18 0 -49 -22 -104 -75 l-78 -75 -63 0 -63 0 66 69
c37 38 67 72 67 75 0 3 -11 6 -25 6 -18 0 -49 -22 -104 -75 l-78 -75 -63 0
-63 0 66 69 c37 38 67 72 67 75 0 3 -11 6 -25 6 -18 0 -49 -22 -104 -75 l-78
-75 -63 0 -63 0 66 69 c37 38 67 72 67 75 0 3 -11 6 -25 6 -18 0 -49 -22 -103
-74 l-77 -74 -67 -4 -67 -4 69 72 c39 40 70 75 70 78 0 3 -12 6 -27 6 -23 0
-168 -140 -881 -852z m1063 462 l-80 -80 -65 0 -65 0 80 80 80 80 65 0 65 0
-80 -80z m200 0 l-80 -80 -65 0 -65 0 80 80 80 80 65 0 65 0 -80 -80z m200 0
l-80 -80 -65 0 -65 0 80 80 80 80 65 0 65 0 -80 -80z m200 0 l-80 -80 -65 0
-65 0 80 80 80 80 65 0 65 0 -80 -80z m200 0 l-80 -80 -65 0 -65 0 80 80 80
80 65 0 65 0 -80 -80z m200 0 l-80 -80 -65 0 -65 0 80 80 80 80 65 0 65 0 -80
-80z m200 0 l-80 -80 -65 0 -65 0 80 80 80 80 65 0 65 0 -80 -80z m200 0 l-80
-80 -65 0 -65 0 80 80 80 80 65 0 65 0 -80 -80z m200 0 l-80 -80 -65 0 -65 0
80 80 80 80 65 0 65 0 -80 -80z m200 0 l-80 -80 -65 0 -65 0 80 80 80 80 65 0
65 0 -80 -80z m200 0 l-80 -80 -65 0 -65 0 80 80 80 80 65 0 65 0 -80 -80z
m200 0 l-80 -80 -65 0 -65 0 80 80 80 80 65 0 65 0 -80 -80z m200 0 l-80 -80
-65 0 -65 0 80 80 80 80 65 0 65 0 -80 -80z m200 0 l-80 -80 -65 0 -65 0 80
80 80 80 65 0 65 0 -80 -80z m235 58 c0 -14 -22 -45 -57 -80 l-57 -58 -65 0
-66 0 80 80 c75 75 82 80 122 80 38 0 43 -3 43 -22z m-2960 -340 c0 -35 -6
-49 -37 -80 -29 -30 -45 -38 -73 -38 -101 -1 -210 -110 -210 -212 0 -30 -45
-78 -517 -550 l-518 -518 -65 0 -65 0 720 720 c527 527 726 720 742 720 20 0
23 -5 23 -42z m640 19 c0 -15 -27 -49 -80 -102 l-80 -80 0 65 c0 61 2 66 37
102 32 32 43 38 80 38 38 0 43 -3 43 -23z m241 -181 l-81 -81 0 65 0 65 78 78
77 78 3 -63 3 -62 -80 -80z m724 124 c-75 -75 -82 -80 -122 -80 -38 0 -43 3
-43 22 0 14 22 45 57 80 l57 58 65 0 66 0 -80 -80z m200 0 l-80 -80 -65 0 -65
0 80 80 80 80 65 0 65 0 -80 -80z m200 0 l-80 -80 -65 0 -65 0 80 80 80 80 65
0 65 0 -80 -80z m200 0 l-80 -80 -65 0 -65 0 80 80 80 80 65 0 65 0 -80 -80z
m200 0 l-80 -80 -65 0 -65 0 80 80 80 80 65 0 65 0 -80 -80z m200 0 l-80 -80
-65 0 -65 0 80 80 80 80 65 0 65 0 -80 -80z m200 0 l-80 -80 -65 0 -65 0 80
80 80 80 65 0 65 0 -80 -80z m200 0 l-80 -80 -65 0 -65 0 80 80 80 80 65 0 65
0 -80 -80z m-2764 -164 l-81 -81 0 65 0 65 78 78 77 78 3 -63 3 -62 -80 -80z
m960 -40 l-81 -81 0 65 0 65 78 78 77 78 3 -63 3 -62 -80 -80z m-640 -40 l-81
-81 0 65 0 65 78 78 77 78 3 -63 3 -62 -80 -80z m320 -80 l-81 -81 0 65 0 65
78 78 77 78 3 -63 3 -62 -80 -80z m-640 -40 l-81 -81 0 65 0 65 78 78 77 78 3
-63 3 -62 -80 -80z m960 -40 l-81 -81 0 65 0 65 78 78 77 78 3 -63 3 -62 -80
-80z m-640 -40 l-81 -81 0 65 0 65 78 78 77 78 3 -63 3 -62 -80 -80z m1124
124 l-80 -80 -65 0 -65 0 80 80 80 80 65 0 65 0 -80 -80z m200 0 l-80 -80 -65
0 -65 0 80 80 80 80 65 0 65 0 -80 -80z m200 0 l-80 -80 -65 0 -65 0 80 80 80
80 65 0 65 0 -80 -80z m200 0 l-80 -80 -65 0 -65 0 80 80 80 80 65 0 65 0 -80
-80z m200 0 l-80 -80 -65 0 -65 0 80 80 80 80 65 0 65 0 -80 -80z m200 0 l-80
-80 -65 0 -65 0 80 80 80 80 65 0 65 0 -80 -80z m200 0 l-80 -80 -65 0 -65 0
80 80 80 80 65 0 65 0 -80 -80z m-2004 -204 l-81 -81 0 65 0 65 78 78 77 78 3
-63 3 -62 -80 -80z m-640 -40 l-81 -81 0 65 0 65 78 78 77 78 3 -63 3 -62 -80
-80z m-955 -353 l-441 -443 -65 0 -65 0 484 484 484 484 22 -41 21 -42 -440
-442z m1915 313 l-81 -81 0 65 0 65 78 78 77 78 3 -63 3 -62 -80 -80z m-640
-40 l-81 -81 0 65 0 65 78 78 77 78 3 -63 3 -62 -80 -80z m-1114 -313 l-402
-403 -65 0 -65 0 423 423 423 423 44 -20 43 -21 -401 -402z m1434 233 l-81
-81 0 65 0 65 78 78 77 78 3 -63 3 -62 -80 -80z m-881 142 c0 -17 -105 -128
-377 -400 l-378 -378 -65 0 -65 0 400 400 400 400 42 0 c38 0 43 -3 43 -22z
m241 -182 l-81 -81 0 65 0 65 78 78 77 78 3 -63 3 -62 -80 -80z m1304 104
l-100 -101 -3 62 c-3 60 -2 63 35 101 35 36 40 38 102 38 l66 0 -100 -100z
m100 -100 l-200 -200 -3 62 -3 62 138 138 138 138 65 0 65 0 -200 -200z m100
-100 l-300 -300 -3 62 -3 62 238 238 238 238 65 0 65 0 -300 -300z m100 -100
l-400 -400 -3 62 -3 62 338 338 338 338 65 0 65 0 -400 -400z m200 0 l-400
-400 -65 0 -65 0 400 400 400 400 65 0 65 0 -400 -400z m200 0 l-400 -400 -65
0 -65 0 400 400 400 400 65 0 65 0 -400 -400z m200 0 l-400 -400 -65 0 -65 0
400 400 400 400 65 0 65 0 -400 -400z m200 0 l-400 -400 -65 0 -65 0 400 400
400 400 65 0 65 0 -400 -400z m-1444 156 l-81 -81 0 65 0 65 78 78 77 78 3
-63 3 -62 -80 -80z m-640 -40 l-81 -81 0 65 0 65 78 78 77 78 3 -63 3 -62 -80
-80z m-838 -238 l-278 -278 -65 0 -65 0 340 340 340 340 3 -62 3 -62 -278
-278z m1158 158 l-81 -81 0 65 0 65 78 78 77 78 3 -63 3 -62 -80 -80z m-640
-40 l-81 -81 0 65 0 65 78 78 77 78 3 -63 3 -62 -80 -80z m960 -40 l-81 -81 0
65 0 65 78 78 77 78 3 -63 3 -62 -80 -80z m-640 -40 l-81 -81 0 65 0 65 78 78
77 78 3 -63 3 -62 -80 -80z m-738 -138 l-178 -178 -65 0 -65 0 240 240 240
240 3 -62 3 -62 -178 -178z m1058 58 l-81 -81 0 65 0 65 78 78 77 78 3 -63 3
-62 -80 -80z m-640 -40 l-81 -81 0 65 0 65 78 78 77 78 3 -63 3 -62 -80 -80z
m960 -40 l-81 -81 0 65 0 65 78 78 77 78 3 -63 3 -62 -80 -80z m-640 -40 l-81
-81 0 65 0 65 78 78 77 78 3 -63 3 -62 -80 -80z m-638 -38 l-78 -78 -65 0 -65
0 140 140 140 140 3 -62 3 -62 -78 -78z m980 -20 c-36 -37 -66 -58 -80 -58
-20 0 -23 5 -23 42 0 40 5 48 78 121 l77 78 3 -62 3 -62 -58 -59z m-620 -20
c-32 -32 -43 -38 -80 -38 -67 0 -59 29 35 123 l77 78 3 -62 c3 -60 2 -63 -35
-101z m-1678 -278 c-95 -96 -125 -105 -125 -38 0 35 6 49 37 80 35 36 40 38
102 38 l66 0 -80 -80z m200 0 l-80 -80 -65 0 -65 0 80 80 80 80 65 0 65 0 -80
-80z m200 0 l-80 -80 -65 0 -65 0 80 80 80 80 65 0 65 0 -80 -80z m200 0 l-80
-80 -65 0 -65 0 80 80 80 80 65 0 65 0 -80 -80z m200 0 l-80 -80 -65 0 -65 0
80 80 80 80 65 0 65 0 -80 -80z m200 0 l-80 -80 -65 0 -65 0 80 80 80 80 65 0
65 0 -80 -80z m200 0 l-80 -80 -65 0 -65 0 80 80 80 80 65 0 65 0 -80 -80z
m200 0 l-80 -80 -65 0 -65 0 80 80 80 80 65 0 65 0 -80 -80z m200 0 l-80 -80
-65 0 -65 0 80 80 80 80 65 0 65 0 -80 -80z m200 0 l-80 -80 -65 0 -65 0 80
80 80 80 65 0 65 0 -80 -80z m200 0 l-80 -80 -65 0 -65 0 80 80 80 80 65 0 65
0 -80 -80z m200 0 l-80 -80 -65 0 -65 0 80 80 80 80 65 0 65 0 -80 -80z m200
0 l-80 -80 -65 0 -65 0 80 80 80 80 65 0 65 0 -80 -80z m200 0 l-80 -80 -65 0
-65 0 80 80 80 80 65 0 65 0 -80 -80z m200 0 l-80 -80 -65 0 -65 0 80 80 80
80 65 0 65 0 -80 -80z m200 0 l-80 -80 -65 0 -65 0 80 80 80 80 65 0 65 0 -80
-80z m200 0 l-80 -80 -65 0 -65 0 80 80 80 80 65 0 65 0 -80 -80z m200 0 l-80
-80 -65 0 -65 0 80 80 80 80 65 0 65 0 -80 -80z m200 0 l-80 -80 -65 0 -65 0
80 80 80 80 65 0 65 0 -80 -80z m200 0 l-80 -80 -65 0 -65 0 80 80 80 80 65 0
65 0 -80 -80z m200 0 l-80 -80 -65 0 -65 0 80 80 80 80 65 0 65 0 -80 -80z
m200 0 l-80 -80 -65 0 -65 0 80 80 80 80 65 0 65 0 -80 -80z m-4165 -365
c-122 -122 -125 -125 -131 -98 -17 72 -12 84 58 155 l67 68 66 0 65 0 -125
-125z m121 -79 c-113 -113 -208 -203 -212 -200 -4 2 -11 25 -15 50 l-7 46 154
154 154 154 65 0 65 0 -204 -204z m119 -81 l-285 -285 -16 47 -17 48 237 238
236 237 65 0 65 0 -285 -285z m131 -69 c-195 -195 -358 -353 -361 -351 -4 2
-13 23 -20 45 l-14 41 310 310 309 309 65 0 65 0 -354 -354z m129 -71 l-425
-425 -22 43 -22 42 382 383 382 382 65 0 65 0 -425 -425z m140 -60 c-267 -267
-487 -485 -490 -485 -3 0 -15 17 -27 38 l-22 37 447 448 447 447 65 0 65 0
-485 -485z m140 -60 c-300 -300 -547 -545 -550 -545 -3 0 -16 17 -29 37 l-23
36 508 508 509 509 65 0 65 0 -545 -545z m142 -57 l-603 -603 -30 35 -29 35
567 567 568 568 65 0 65 0 -603 -602z m148 -53 l-655 -655 -33 32 -33 32 623
623 623 623 65 0 65 0 -655 -655z m150 -50 l-705 -705 -33 32 -33 32 673 673
673 673 65 0 65 0 -705 -705z m156 -44 l-750 -750 -28 20 c-15 11 -30 25 -34
31 -4 6 309 326 712 729 l719 719 65 0 65 0 -749 -749z m158 -42 l-792 -792
-33 23 c-19 13 -36 25 -39 27 -2 2 340 348 760 768 l765 765 65 0 65 0 -791
-791z m162 -38 c-825 -825 -830 -830 -855 -816 -14 8 -33 19 -41 24 -12 9 142
168 790 816 l805 805 65 0 65 0 -829 -829z m165 -35 l-864 -864 -44 21 -44 21
843 843 843 843 65 0 65 0 -864 -864z m174 -26 c-489 -490 -896 -890 -903
-890 -7 0 -29 7 -49 15 l-37 16 874 874 875 875 65 0 65 0 -890 -890z m175
-25 c-503 -503 -921 -915 -929 -915 -7 0 -31 5 -53 12 l-39 12 903 903 903
903 65 0 65 0 -915 -915z m180 -21 l-935 -935 -43 5 c-24 3 -48 9 -54 12 -6 4
405 422 913 930 l924 924 65 0 65 0 -935 -936z m184 -15 l-952 -952 -57 8 -58
7 944 944 944 944 65 0 65 0 -951 -951z m196 -4 l-955 -955 -65 0 -65 0 955
955 955 955 65 0 65 0 -955 -955z m195 -5 l-960 -960 -65 0 -65 0 960 960 960
960 65 0 65 0 -960 -960z m200 0 l-960 -960 -65 0 -65 0 960 960 960 960 65 0
65 0 -960 -960z m1145 952 c0 -4 -426 -433 -947 -953 l-948 -947 -70 -6 -70
-6 960 960 960 960 57 0 c32 0 58 -3 58 -8z m-11 -157 l-9 -70 -827 -827
c-814 -814 -828 -828 -873 -833 -25 -4 -58 -9 -75 -12 -24 -4 147 172 880 906
500 500 910 909 911 908 1 -1 -2 -33 -7 -72z m-48 -251 l-20 -78 -667 -667
-668 -668 -76 -20 c-42 -12 -81 -21 -86 -21 -5 0 337 346 761 770 423 423 771
768 773 766 1 -2 -6 -39 -17 -82z m-80 -241 c-66 -167 -42 -138 -504 -602
-414 -415 -435 -435 -507 -468 -180 -84 -199 -107 435 527 324 324 591 590
592 590 2 0 -6 -21 -16 -47z m-212 -395 c-130 -187 -314 -372 -489 -493 -38
-26 31 49 225 243 154 155 281 282 283 282 2 0 -7 -15 -19 -32z m-1154 -1068
l-120 -120 -65 0 -65 0 99 99 99 99 81 20 c45 11 83 20 86 21 3 0 -49 -53
-115 -119z m-1373 74 l40 -7 -93 -93 c-85 -86 -94 -92 -118 -83 -14 6 -32 17
-39 27 -11 14 -2 27 65 94 45 46 83 76 91 73 8 -3 32 -8 54 -11z m1528 -55 c0
-58 -2 -64 -39 -100 -37 -37 -42 -39 -102 -39 l-64 0 100 100 c55 55 101 100
102 100 2 0 3 -28 3 -61z m-1331 25 c10 -3 -11 -31 -64 -84 l-80 -80 -65 0
-65 0 89 89 c87 87 89 89 130 84 22 -3 47 -7 55 -9z m946 -74 l-90 -90 -65 0
-65 0 82 82 c74 74 87 83 130 89 105 14 105 17 8 -81z m-810 -10 l-80 -80 -65
0 -65 0 80 80 80 80 65 0 65 0 -80 -80z m200 0 l-80 -80 -65 0 -65 0 80 80 80
80 65 0 65 0 -80 -80z m200 0 l-80 -80 -65 0 -65 0 80 80 80 80 65 0 65 0 -80
-80z m200 0 l-80 -80 -65 0 -65 0 80 80 80 80 65 0 65 0 -80 -80z"/>
<path d="M4296 850 c-449 -448 -822 -823 -827 -832 -8 -15 -5 -18 18 -18 23 0
152 124 811 783 431 430 792 794 803 810 11 15 19 37 17 50 -4 18 -141 -114
-822 -793z"/>
<path d="M4396 750 c-394 -393 -722 -723 -727 -732 -8 -15 -5 -18 18 -18 23 0
137 110 711 683 376 375 692 694 703 710 11 15 19 37 17 50 -4 18 -124 -97
-722 -693z"/>
<path d="M4496 650 c-339 -338 -622 -623 -627 -632 -8 -15 -5 -18 18 -18 23 0
123 95 611 583 321 320 592 594 603 610 11 15 19 37 17 50 -4 18 -106 -80
-622 -593z"/>
<path d="M4596 550 c-284 -283 -522 -523 -527 -533 -8 -14 -5 -17 18 -17 23 0
108 81 511 483 266 265 492 494 503 510 11 15 19 37 17 50 -4 18 -89 -62 -522
-493z"/>
<path d="M4696 450 c-229 -228 -422 -423 -427 -432 -8 -15 -5 -18 18 -18 22 0
93 66 411 383 211 210 392 394 403 410 11 15 19 37 17 50 -4 18 -72 -45 -422
-393z"/>
<path d="M4796 350 c-174 -173 -322 -323 -327 -332 -8 -15 -5 -18 17 -18 23 0
80 52 312 282 156 156 293 295 303 311 11 15 19 37 17 50 -4 18 -54 -28 -322
-293z"/>
<path d="M4896 250 c-119 -118 -222 -223 -227 -232 -8 -15 -5 -18 17 -18 21 0
65 37 211 183 205 202 226 227 221 260 -3 19 -37 -11 -222 -193z"/>
<path d="M4996 150 c-136 -133 -149 -150 -111 -150 18 0 49 23 111 82 102 98
127 130 122 161 -3 19 -19 7 -122 -93z"/>
</g>
</svg>
