<?xml version="1.0" standalone="no"?>
<!DOCTYPE svg PUBLIC "-//W3C//DTD SVG 20010904//EN"
 "http://www.w3.org/TR/2001/REC-SVG-20010904/DTD/svg10.dtd">
<svg version="1.0" xmlns="http://www.w3.org/2000/svg"
 width="728.000000pt" height="728.000000pt" viewBox="0 0 728.000000 728.000000"
 preserveAspectRatio="xMidYMid meet">
<metadata>
Created by potrace 1.15, written by Peter Selinger 2001-2017
</metadata>
<g transform="translate(0.000000,728.000000) scale(0.100000,-0.100000)"
fill="#000000" stroke="none">
<path d="M3950 6836 c-178 -18 -264 -31 -449 -72 -523 -115 -1097 -355 -1684
-703 -158 -93 -213 -139 -227 -189 -20 -76 -8 -93 240 -342 127 -127 244 -239
262 -250 40 -24 114 -26 147 -4 100 71 448 237 689 330 503 195 1154 324 1630
324 66 0 104 5 128 16 47 22 74 70 74 130 0 52 -5 59 -272 446 -32 46 -88 128
-126 183 -40 58 -83 108 -102 119 -42 25 -136 29 -310 12z m248 -396 c118
-171 164 -241 161 -244 -2 -2 -87 -11 -189 -20 -418 -40 -797 -121 -1205 -259
-260 -87 -518 -198 -689 -294 l-79 -45 -110 110 -110 110 43 27 c85 54 228
133 380 212 510 264 1053 444 1480 492 257 29 230 37 318 -89z"/>
<path d="M4097 5539 c-831 -59 -1802 -431 -2733 -1046 -78 -51 -149 -93 -158
-93 -22 0 -162 75 -295 159 -234 148 -359 204 -540 241 -54 11 -138 20 -186
20 -94 0 -124 -11 -160 -58 -20 -27 -20 -45 -23 -1007 -2 -1094 -7 -1023 67
-1072 29 -20 47 -23 121 -23 49 0 139 9 202 19 231 40 384 116 590 295 156
134 161 135 286 43 244 -182 483 -341 717 -479 58 -34 79 -46 230 -130 190
-106 567 -278 790 -361 129 -48 357 -117 520 -156 357 -87 756 -120 1035 -87
228 28 451 86 665 173 176 71 221 99 245 147 24 51 25 64 5 114 -11 26 -45 64
-108 118 -245 212 -439 520 -534 844 -50 174 -66 306 -60 515 6 211 23 316 82
490 105 316 272 561 556 820 55 49 68 67 73 100 14 81 -24 131 -134 182 -413
191 -807 264 -1253 232z m513 -308 c128 -23 252 -57 380 -103 47 -17 87 -33
89 -35 3 -2 -34 -42 -80 -91 -227 -233 -381 -508 -457 -812 -46 -184 -53 -236
-59 -440 -18 -586 145 -1030 519 -1416 l88 -91 -122 -41 c-135 -45 -287 -85
-388 -102 -331 -53 -828 11 -1305 168 -348 115 -779 313 -1095 502 -25 15 -79
46 -120 70 -264 153 -811 542 -952 677 -83 79 -112 172 -88 284 25 117 70 162
370 363 810 543 1596 892 2322 1031 344 66 655 78 898 36z m-4225 -745 c113
-29 223 -78 341 -152 212 -133 225 -144 190 -157 -23 -9 -105 -123 -137 -190
-34 -73 -59 -179 -59 -252 0 -130 69 -309 152 -396 l44 -45 -95 -80 c-108 -90
-157 -125 -223 -159 -53 -28 -188 -69 -260 -79 l-48 -7 0 771 c0 730 1 771 18
766 9 -3 44 -12 77 -20z"/>
<path d="M5860 4923 c-34 -14 -188 -154 -263 -238 -190 -215 -323 -482 -374
-749 -27 -139 -23 -438 6 -566 59 -256 160 -462 326 -670 51 -63 167 -178 234
-231 102 -81 140 -82 270 -8 319 185 664 450 871 671 381 407 386 684 20 1064
-236 244 -498 448 -839 652 -110 65 -133 76 -181 78 -30 2 -62 1 -70 -3z m290
-457 c145 -93 291 -200 405 -296 203 -172 375 -402 375 -502 0 -81 -96 -224
-261 -388 -163 -163 -344 -303 -598 -464 -146 -92 -130 -94 -254 31 -230 233
-341 536 -324 887 3 67 11 146 17 176 53 252 168 456 351 623 l72 66 46 -26
c25 -15 102 -63 171 -107z"/>
<path d="M6140 3951 c-165 -54 -253 -212 -204 -367 26 -84 108 -166 189 -190
136 -39 267 12 335 131 83 145 27 326 -124 402 -54 27 -150 39 -196 24z"/>
<path d="M2250 2027 c-23 -12 -198 -208 -363 -409 -40 -47 -118 -141 -175
-207 -56 -66 -107 -132 -112 -146 -22 -58 -6 -118 42 -161 12 -12 167 -79 343
-149 176 -69 348 -138 382 -152 109 -45 90 -55 608 291 351 234 464 314 477
339 35 65 14 153 -46 192 -13 9 -53 20 -88 25 -224 32 -526 145 -826 309 -155
84 -190 94 -242 68z m181 -362 c108 -62 242 -123 396 -180 73 -27 132 -50 130
-51 -1 -1 -118 -80 -261 -174 -170 -113 -264 -169 -275 -165 -84 30 -441 180
-441 185 0 6 89 112 205 245 29 33 76 88 105 123 28 34 54 62 57 62 3 0 41
-20 84 -45z"/>
</g>
</svg>
